<svg width="42" height="42" viewBox="0 0 42 42" fill="none" xmlns="http://www.w3.org/2000/svg">
<path fill-rule="evenodd" clip-rule="evenodd" d="M21 39C30.9411 39 39 30.9411 39 21C39 11.0589 30.9411 3 21 3C11.0589 3 3 11.0589 3 21C3 30.9411 11.0589 39 21 39ZM21 42C32.598 42 42 32.598 42 21C42 9.40202 32.598 0 21 0C9.40202 0 0 9.40202 0 21C0 32.598 9.40202 42 21 42Z" fill="#003363"/>
<path fill-rule="evenodd" clip-rule="evenodd" d="M21 9C22.6569 9 24 10.3024 24 11.9091L24 22.0909C24 23.6976 22.6569 25 21 25C19.3431 25 18 23.6976 18 22.0909L18 11.9091C18 10.3024 19.3431 9 21 9Z" fill="#003363"/>
<path d="M24 30C24 31.6569 22.6569 33 21 33C19.3431 33 18 31.6569 18 30C18 28.3431 19.3431 27 21 27C22.6569 27 24 28.3431 24 30Z" fill="#003363"/>
</svg>
