<svg width="48" height="48" viewBox="0 0 48 48" fill="none" xmlns="http://www.w3.org/2000/svg">
<path fill-rule="evenodd" clip-rule="evenodd" d="M24 30C27.3137 30 30 27.3137 30 24C30 20.6863 27.3137 18 24 18C20.6863 18 18 20.6863 18 24C18 27.3137 20.6863 30 24 30Z" stroke="#4A2ACB" stroke-width="3" stroke-linecap="round" stroke-linejoin="round"/>
<path fill-rule="evenodd" clip-rule="evenodd" d="M38.8 30C38.2553 31.2342 38.5167 32.6756 39.46 33.64L39.58 33.76C40.3311 34.5103 40.7531 35.5284 40.7531 36.59C40.7531 37.6516 40.3311 38.6697 39.58 39.42C38.8297 40.1711 37.8116 40.5931 36.75 40.5931C35.6884 40.5931 34.6703 40.1711 33.92 39.42L33.8 39.3C32.8356 38.3567 31.3942 38.0953 30.16 38.64C28.9511 39.1581 28.1652 40.3447 28.16 41.66V42C28.16 44.2091 26.3691 46 24.16 46C21.9509 46 20.16 44.2091 20.16 42V41.82C20.1283 40.4653 19.2717 39.2677 18 38.8C16.7658 38.2553 15.3244 38.5167 14.36 39.46L14.24 39.58C13.4897 40.3311 12.4716 40.7531 11.41 40.7531C10.3484 40.7531 9.33027 40.3311 8.58 39.58C7.82889 38.8297 7.40685 37.8116 7.40685 36.75C7.40685 35.6884 7.82889 34.6703 8.58 33.92L8.7 33.8C9.64333 32.8356 9.90469 31.3942 9.36 30.16C8.84186 28.9511 7.65529 28.1652 6.34 28.16H6C3.79086 28.16 2 26.3691 2 24.16C2 21.9509 3.79086 20.16 6 20.16H6.18C7.53466 20.1283 8.73227 19.2717 9.2 18C9.74469 16.7658 9.48333 15.3244 8.54 14.36L8.42 14.24C7.66889 13.4897 7.24685 12.4716 7.24685 11.41C7.24685 10.3484 7.66889 9.33027 8.42 8.58C9.17027 7.82889 10.1884 7.40685 11.25 7.40685C12.3116 7.40685 13.3297 7.82889 14.08 8.58L14.2 8.7C15.1644 9.64333 16.6058 9.90469 17.84 9.36H18C19.2089 8.84186 19.9948 7.65529 20 6.34V6C20 3.79086 21.7909 2 24 2C26.2091 2 28 3.79086 28 6V6.18C28.0052 7.49529 28.7911 8.68186 30 9.2C31.2342 9.74469 32.6756 9.48333 33.64 8.54L33.76 8.42C34.5103 7.66889 35.5284 7.24685 36.59 7.24685C37.6516 7.24685 38.6697 7.66889 39.42 8.42C40.1711 9.17027 40.5931 10.1884 40.5931 11.25C40.5931 12.3116 40.1711 13.3297 39.42 14.08L39.3 14.2C38.3567 15.1644 38.0953 16.6058 38.64 17.84V18C39.1581 19.2089 40.3447 19.9948 41.66 20H42C44.2091 20 46 21.7909 46 24C46 26.2091 44.2091 28 42 28H41.82C40.5047 28.0052 39.3181 28.7911 38.8 30Z" stroke="#4A2ACB" stroke-width="3" stroke-linecap="round" stroke-linejoin="round"/>
</svg>
