<svg width="41" height="41" viewBox="0 0 41 41" fill="none" xmlns="http://www.w3.org/2000/svg">
<path d="M27.0838 11.858C26.4746 10.9771 25.604 10.2726 24.4945 9.76217C23.3914 9.25638 22.1065 9 20.6744 9C19.1326 9 17.7604 9.30712 16.5977 9.91308C15.4336 10.52 14.5341 11.2988 13.9242 12.2275C13.3116 13.1608 13 14.0994 13 15.0181C13 15.508 13.2144 15.9654 13.635 16.3766C14.0576 16.7906 14.5832 16.9998 15.1973 16.9998C16.2451 16.9998 16.959 16.4141 17.3225 15.2652C17.6535 14.315 18.0618 13.5903 18.5339 13.11C18.9781 12.6576 19.6987 12.4281 20.6744 12.4281C21.5161 12.4281 22.1803 12.653 22.7074 13.1163C23.2264 13.5734 23.4791 14.118 23.4791 14.7813C23.4791 15.1163 23.397 15.4171 23.2323 15.7017C23.0572 16.0002 22.8389 16.2745 22.5838 16.5186C22.314 16.776 21.8688 17.1624 21.2603 17.6705C20.5515 18.2625 19.9796 18.7809 19.5632 19.2114C19.1281 19.6588 18.7755 20.1848 18.512 20.7742C18.2488 21.3676 18.1151 22.0757 18.1151 22.88C18.1151 23.5662 18.316 24.0975 18.7128 24.4594C19.1055 24.8176 19.5946 25 20.1672 25C21.262 25 21.9499 24.4299 22.1546 23.3632C22.2583 22.9198 22.337 22.61 22.3892 22.4339C22.4365 22.2737 22.5051 22.1092 22.5932 21.945C22.6788 21.7851 22.8142 21.6041 22.997 21.406C23.1874 21.1968 23.4447 20.9513 23.76 20.677C24.9398 19.6721 25.7721 18.9451 26.2337 18.5146C26.7099 18.0711 27.1252 17.5375 27.4681 16.9299C27.8211 16.308 28 15.5753 28 14.7544C28.0007 13.716 27.6912 12.7406 27.082 11.8567" fill="#1A6481"/>
<circle cx="20.5" cy="29.5" r="2.5" fill="#1A6481"/>
<circle cx="20.5" cy="20.5" r="19" stroke="#1A6481" stroke-width="3"/>
</svg>
