<svg width="93" height="93" viewBox="0 0 93 93" fill="none" xmlns="http://www.w3.org/2000/svg">
<path d="M46.5 7.75C47.5277 7.75 48.5133 8.15826 49.24 8.88496C49.9667 9.61166 50.375 10.5973 50.375 11.625V23.25C50.375 24.2777 49.9667 25.2633 49.24 25.99C48.5133 26.7167 47.5277 27.125 46.5 27.125C45.4723 27.125 44.4867 26.7167 43.76 25.99C43.0333 25.2633 42.625 24.2777 42.625 23.25V11.625C42.625 10.5973 43.0333 9.61166 43.76 8.88496C44.4867 8.15826 45.4723 7.75 46.5 7.75ZM46.5 65.875C47.5277 65.875 48.5133 66.2833 49.24 67.01C49.9667 67.7367 50.375 68.7223 50.375 69.75V81.375C50.375 82.4027 49.9667 83.3883 49.24 84.115C48.5133 84.8417 47.5277 85.25 46.5 85.25C45.4723 85.25 44.4867 84.8417 43.76 84.115C43.0333 83.3883 42.625 82.4027 42.625 81.375V69.75C42.625 68.7223 43.0333 67.7367 43.76 67.01C44.4867 66.2833 45.4723 65.875 46.5 65.875ZM85.25 46.5C85.25 47.5277 84.8417 48.5133 84.115 49.24C83.3883 49.9667 82.4027 50.375 81.375 50.375H69.75C68.7223 50.375 67.7367 49.9667 67.01 49.24C66.2833 48.5133 65.875 47.5277 65.875 46.5C65.875 45.4723 66.2833 44.4867 67.01 43.76C67.7367 43.0333 68.7223 42.625 69.75 42.625H81.375C82.4027 42.625 83.3883 43.0333 84.115 43.76C84.8417 44.4867 85.25 45.4723 85.25 46.5ZM27.125 46.5C27.125 47.5277 26.7167 48.5133 25.99 49.24C25.2633 49.9667 24.2777 50.375 23.25 50.375H11.625C10.5973 50.375 9.61166 49.9667 8.88496 49.24C8.15826 48.5133 7.75 47.5277 7.75 46.5C7.75 45.4723 8.15826 44.4867 8.88496 43.76C9.61166 43.0333 10.5973 42.625 11.625 42.625H23.25C24.2777 42.625 25.2633 43.0333 25.99 43.76C26.7167 44.4867 27.125 45.4723 27.125 46.5ZM73.9001 73.9001C73.1735 74.6266 72.188 75.0347 71.1605 75.0347C70.133 75.0347 69.1475 74.6266 68.4209 73.9001L60.202 65.6813C59.4961 64.9504 59.1056 63.9716 59.1144 62.9556C59.1232 61.9396 59.5307 60.9677 60.2492 60.2492C60.9677 59.5307 61.9396 59.1232 62.9556 59.1144C63.9716 59.1056 64.9504 59.4961 65.6813 60.202L73.9001 68.417C74.2604 68.7769 74.5462 69.2043 74.7412 69.6747C74.9362 70.1451 75.0366 70.6493 75.0366 71.1586C75.0366 71.6678 74.9362 72.172 74.7412 72.6425C74.5462 73.1129 74.2604 73.5402 73.9001 73.9001ZM32.798 32.798C32.0713 33.5245 31.0859 33.9325 30.0584 33.9325C29.0309 33.9325 28.0454 33.5245 27.3188 32.798L19.1037 24.583C18.3766 23.8564 17.968 22.8707 17.9676 21.8428C17.9672 20.8149 18.3752 19.8289 19.1018 19.1018C19.8284 18.3747 20.8141 17.966 21.842 17.9657C22.8699 17.9653 23.8559 18.3733 24.583 19.0999L32.798 27.3188C33.5245 28.0454 33.9325 29.0309 33.9325 30.0584C33.9325 31.0859 33.5245 32.0713 32.798 32.798ZM19.1037 73.9001C18.3773 73.1735 17.9692 72.188 17.9692 71.1605C17.9692 70.133 18.3773 69.1475 19.1037 68.4209L27.3226 60.202C27.6801 59.8319 28.1077 59.5367 28.5804 59.3336C29.0532 59.1305 29.5617 59.0236 30.0762 59.0192C30.5907 59.0147 31.101 59.1127 31.5772 59.3076C32.0534 59.5024 32.4861 59.7901 32.8499 60.154C33.2137 60.5178 33.5015 60.9505 33.6963 61.4267C33.8911 61.9029 33.9892 62.4132 33.9847 62.9277C33.9802 63.4422 33.8734 63.9507 33.6703 64.4234C33.4672 64.8962 33.172 65.3238 32.8019 65.6813L24.5869 73.9001C24.227 74.2604 23.7996 74.5462 23.3292 74.7412C22.8588 74.9362 22.3545 75.0366 21.8453 75.0366C21.3361 75.0366 20.8318 74.9362 20.3614 74.7412C19.891 74.5462 19.4636 74.2604 19.1037 73.9001ZM60.202 32.798C59.4756 32.0713 59.0675 31.0859 59.0675 30.0584C59.0675 29.0309 59.4756 28.0454 60.202 27.3188L68.417 19.0999C69.1436 18.3728 70.1293 17.9641 71.1572 17.9637C72.1851 17.9634 73.1711 18.3713 73.8982 19.0979C74.6253 19.8245 75.034 20.8102 75.0343 21.8381C75.0347 22.8661 74.6267 23.852 73.9001 24.5791L65.6813 32.798C64.9546 33.5245 63.9691 33.9325 62.9416 33.9325C61.9141 33.9325 60.9287 33.5245 60.202 32.798Z" fill="#009CCC"/>
</svg>
