<svg width="25" height="26" viewBox="0 0 25 26" fill="none" xmlns="http://www.w3.org/2000/svg">
<path d="M23.3889 10.3784C23.3889 15.2681 19.3824 19.2568 14.4093 19.2568C9.43633 19.2568 5.42981 15.2681 5.42981 10.3784C5.42981 5.48867 9.43633 1.5 14.4093 1.5C19.3824 1.5 23.3889 5.48867 23.3889 10.3784Z" stroke="#003363" stroke-width="3"/>
<line x1="1.5" y1="-1.5" x2="9.5617" y2="-1.5" transform="matrix(-0.710528 0.703669 -0.710528 -0.703669 7.85962 16.2163)" stroke="#003363" stroke-width="3" stroke-linecap="round" stroke-linejoin="round"/>
<path d="M8.9427 7.96102C8.68232 8.44807 8.86607 9.05399 9.35312 9.31437C9.84017 9.57475 10.4461 9.391 10.7065 8.90395L8.9427 7.96102ZM18.1275 8.93143C18.4031 9.41006 19.0145 9.57468 19.4931 9.29912C19.9718 9.02356 20.1364 8.41217 19.8608 7.93354L18.1275 8.93143ZM10.7065 8.90395C12.1155 6.26827 16.4532 6.0233 18.1275 8.93143L19.8608 7.93354C17.394 3.64887 11.0832 3.95728 8.9427 7.96102L10.7065 8.90395Z" fill="#003363"/>
</svg>
