<svg width="25" height="25" viewBox="0 0 25 25" fill="none" xmlns="http://www.w3.org/2000/svg">
<path d="M3.40125 2.56375L22.595 12.0212C22.6997 12.0728 22.7878 12.1527 22.8494 12.2518C22.9111 12.3508 22.9437 12.4652 22.9437 12.5819C22.9437 12.6986 22.9111 12.8129 22.8494 12.912C22.7878 13.0111 22.6997 13.0909 22.595 13.1425L3.4 22.6C3.29246 22.6528 3.17201 22.6736 3.05299 22.6599C2.93396 22.6462 2.82138 22.5986 2.72865 22.5228C2.63592 22.4469 2.56696 22.346 2.52996 22.232C2.49297 22.118 2.48951 21.9959 2.52 21.88L4.42125 14.6987C4.45207 14.5825 4.51575 14.4777 4.60465 14.3968C4.69356 14.3158 4.80392 14.2623 4.9225 14.2425L13.5238 12.8087C13.575 12.8003 13.6233 12.7791 13.6644 12.7473C13.7054 12.7154 13.7378 12.6738 13.7587 12.6262L13.7812 12.5512C13.7929 12.4817 13.7807 12.4103 13.7467 12.3486C13.7127 12.2869 13.6588 12.2385 13.5938 12.2112L13.5238 12.1912L4.875 10.75C4.75664 10.73 4.64655 10.6763 4.55789 10.5954C4.46922 10.5145 4.40573 10.4098 4.375 10.2937L2.52 3.285C2.48919 3.16905 2.49242 3.04668 2.52927 2.93251C2.56613 2.81834 2.63507 2.71719 2.72786 2.64114C2.82065 2.56509 2.93337 2.51735 3.05255 2.50363C3.17174 2.48991 3.29235 2.51078 3.4 2.56375H3.40125Z" fill="#4A2ACB"/>
</svg>
