<svg width="38" height="38" viewBox="0 0 46 38" fill="none" xmlns="http://www.w3.org/2000/svg">
<path fill-rule="evenodd" clip-rule="evenodd" d="M31.1948 6.06578C24.2829 1.7468 15.3994 3.97723 11.0384 10.9562C10.5994 11.6588 9.67398 11.8724 8.97143 11.4334C8.26889 10.9944 8.05524 10.069 8.49424 9.36648C13.6909 1.05004 24.4009 -1.71704 32.7845 3.52164C41.1682 8.76032 43.3761 19.5994 38.1794 27.9158C37.7404 28.6184 36.815 28.832 36.1124 28.393C35.4099 27.954 35.1962 27.0286 35.6352 26.326C39.9962 19.347 38.1066 10.3848 31.1948 6.06578Z" fill="#003363"/>
<path fill-rule="evenodd" clip-rule="evenodd" d="M29.7691 19.2902C34.73 18.2526 39.4502 22.6361 38.371 27.4491C38.1898 28.2574 37.3875 28.7658 36.5792 28.5846C35.7708 28.4033 35.2625 27.6011 35.4437 26.7927C36.0908 23.9065 32.4141 20.6482 28.8331 22.8594C28.2993 23.189 27.6168 23.1516 27.1222 22.7657C26.6276 22.3798 26.4255 21.7268 26.6154 21.1289C27.2059 19.2701 26.3142 17.574 24.6762 16.5962C23.0073 15.6 20.9782 15.6041 19.6315 16.8147C19.1414 17.2553 18.4212 17.3243 17.8563 16.985C17.2914 16.6456 17.0141 15.9772 17.173 15.3376C17.5976 13.6278 16.7369 12.2682 15.1778 11.4541C13.5242 10.5906 11.6388 10.6496 10.6524 11.3717C9.98398 11.861 9.0454 11.7158 8.55604 11.0474C8.06669 10.379 8.21188 9.44036 8.88033 8.95101C11.0807 7.3402 14.2659 7.59347 16.5664 8.79478C18.2297 9.66329 19.6914 11.1708 20.1433 13.1629C22.22 12.5407 24.4731 12.9811 26.2138 14.0202C28.0421 15.1116 29.5227 16.9962 29.7691 19.2902Z" fill="#003363"/>
<path fill-rule="evenodd" clip-rule="evenodd" d="M26.0278 15.3166C26.7303 15.7556 26.9439 16.681 26.5049 17.3835L17.0191 32.5641C16.5801 33.2666 15.6547 33.4803 14.9521 33.0413C14.2496 32.6023 14.0359 31.6769 14.4749 30.9743L23.9608 15.7938C24.3998 15.0912 25.3252 14.8776 26.0278 15.3166Z" fill="#003363"/>
<path fill-rule="evenodd" clip-rule="evenodd" d="M35.6513 0.808576C36.3173 1.30117 36.458 2.24045 35.9654 2.90651L34.1166 5.40625C33.6241 6.07232 32.6848 6.21294 32.0187 5.72035C31.3526 5.22775 31.212 4.28847 31.7046 3.62241L33.5533 1.12267C34.0459 0.456605 34.9852 0.315981 35.6513 0.808576Z" fill="#003363"/>
<path fill-rule="evenodd" clip-rule="evenodd" d="M2.79945 37.323C2.71827 37.3562 2.64075 37.3879 2.56688 37.418C1.79971 37.7307 0.924353 37.3622 0.611712 36.595C0.29907 35.8279 0.667537 34.9525 1.43471 34.6399C1.50562 34.611 1.57974 34.5806 1.65706 34.549C4.46251 33.4018 11.4878 30.5289 23.1074 30.5289C35.0162 30.5289 41.4968 33.1634 44.6498 34.6766C45.3967 35.0351 45.7116 35.9311 45.3531 36.678C44.9947 37.4248 44.0986 37.7397 43.3518 37.3813C40.5516 36.0374 34.5123 33.5289 23.1074 33.5289C12.0699 33.5289 5.46286 36.2329 2.79945 37.323Z" fill="#003363"/>
</svg>
