<svg width="48" height="48" viewBox="0 0 48 48" fill="none" xmlns="http://www.w3.org/2000/svg">
<path d="M34 42V38C34 33.5817 30.4183 30 26 30H10C5.58172 30 2 33.5817 2 38V42" stroke="#003363" stroke-width="4" stroke-linecap="round" stroke-linejoin="round"/>
<path fill-rule="evenodd" clip-rule="evenodd" d="M18 22C22.4183 22 26 18.4183 26 14C26 9.58172 22.4183 6 18 6C13.5817 6 10 9.58172 10 14C10 18.4183 13.5817 22 18 22Z" stroke="#003363" stroke-width="4" stroke-linecap="round" stroke-linejoin="round"/>
<path d="M46 42V38C45.9973 34.3542 43.53 31.1714 40 30.26" stroke="#003363" stroke-width="4" stroke-linecap="round" stroke-linejoin="round"/>
<path d="M32 6.26001C35.5398 7.16635 38.0157 10.356 38.0157 14.01C38.0157 17.664 35.5398 20.8537 32 21.76" stroke="#003363" stroke-width="4" stroke-linecap="round" stroke-linejoin="round"/>
</svg>
